<?xml version="1.0" encoding="iso-8859-1"?>
<!-- Generator: Adobe Illustrator 19.0.0, SVG Export Plug-In . SVG Version: 6.00 Build 0)  -->
<svg version="1.1" id="Layer_1" xmlns="http://www.w3.org/2000/svg" xmlns:xlink="http://www.w3.org/1999/xlink" x="0px" y="0px"
	 viewBox="0 0 470.001 470.001" style="enable-background:new 0 0 470.001 470.001;" xml:space="preserve">
<g>
	<g>
		<g>
			<path d="M237.501,172.501v40c0,4.142,3.357,7.5,7.5,7.5s7.5-3.358,7.5-7.5v-40c0-4.142-3.357-7.5-7.5-7.5
				S237.501,168.359,237.501,172.501z"/>
			<path d="M197.501,172.501v40c0,4.142,3.358,7.5,7.5,7.5c4.142,0,7.5-3.358,7.5-7.5v-40c0-4.142-3.358-7.5-7.5-7.5
				C200.859,165.001,197.501,168.359,197.501,172.501z"/>
			<path d="M277.501,172.501v40c0,4.142,3.357,7.5,7.5,7.5s7.5-3.358,7.5-7.5v-40c0-4.142-3.357-7.5-7.5-7.5
				S277.501,168.359,277.501,172.501z"/>
			<circle cx="327.918" cy="367.501" r="7.5"/>
			<circle cx="363.751" cy="367.501" r="7.5"/>
			<path d="M408.751,345.001c-12.406,0-22.5,10.093-22.5,22.5c0,12.407,10.094,22.5,22.5,22.5s22.5-10.093,22.5-22.5
				C431.251,355.094,421.158,345.001,408.751,345.001z M408.751,375.001c-4.136,0-7.5-3.364-7.5-7.5s3.364-7.5,7.5-7.5
				s7.5,3.364,7.5,7.5S412.887,375.001,408.751,375.001z"/>
			<path d="M422.501,235.001H42.437c0.035-0.418,0.064-0.838,0.064-1.266c0-2.762-0.764-5.344-2.072-7.569L373.331,33.965
				c3.587-2.071,4.816-6.658,2.745-10.245c-8.447-14.631-24.253-23.719-41.251-23.719c-8.286,0-16.459,2.19-23.635,6.333
				L3.751,183.834c-3.587,2.071-4.816,6.658-2.745,10.245l16.471,28.529c-3.047,2.747-4.976,6.711-4.976,11.127
				c0,5.538,3.024,10.372,7.5,12.97V422.5c0,4.142,3.358,7.5,7.5,7.5h7.5v32.5c0,4.142,3.358,7.5,7.5,7.5h405
				c4.143,0,7.5-3.358,7.5-7.5V430h7.5c4.143,0,7.5-3.358,7.5-7.5v-140C470.001,256.309,448.693,235.001,422.501,235.001z
				 M30.246,214.725l-12.5-21.651l300.945-173.75c4.898-2.828,10.478-4.323,16.135-4.323c9.081,0,17.66,3.772,23.738,10.17
				L30.246,214.725z M455.001,415.001h-342.5c-4.142,0-7.5,3.358-7.5,7.5c0,4.142,3.358,7.5,7.5,7.5h327.5v25h-390v-25h32.5
				c4.142,0,7.5-3.358,7.5-7.5c0-4.142-3.358-7.5-7.5-7.5h-47.5v-165h387.5c17.921,0,32.5,14.58,32.5,32.5V415.001z"/>
		</g>
	</g>
</g>
<g>
</g>
<g>
</g>
<g>
</g>
<g>
</g>
<g>
</g>
<g>
</g>
<g>
</g>
<g>
</g>
<g>
</g>
<g>
</g>
<g>
</g>
<g>
</g>
<g>
</g>
<g>
</g>
<g>
</g>
</svg>
